<svg xmlns="http://www.w3.org/2000/svg" width="12.312" height="10"><path fill="#fd5000" fill-rule="evenodd" d="M12.312 1.2a4.771 4.771 0 0 1-1.453.39A2.492 2.492 0 0 0 11.968.2a4.958 4.958 0 0 1-1.6.61 2.524 2.524 0 0 0-4.367 1.73 2.932 2.932 0 0 0 .062.58A7.178 7.178 0 0 1 .863.48a2.473 2.473 0 0 0-.344 1.27 2.523 2.523 0 0 0 1.125 2.1 2.563 2.563 0 0 1-1.14-.32v.03a2.529 2.529 0 0 0 2.023 2.48 2.9 2.9 0 0 1-.664.08 2.511 2.511 0 0 1-.477-.04 2.524 2.524 0 0 0 2.36 1.75A5.053 5.053 0 0 1 .613 8.91a6.087 6.087 0 0 1-.609-.03 7.186 7.186 0 0 0 11.054-6.05c0-.1 0-.21-.008-.32a5.45 5.45 0 0 0 1.262-1.31z" data-name=""/></svg>